<?xml version="1.0" encoding="UTF-8"?>
<svg version="1.1" xmlns="http://www.w3.org/2000/svg" width="22" height="22">
<path d="M0 0 C1.65 0 3.3 0 5 0 C5 1.65 5 3.3 5 5 C6.98 5 8.96 5 11 5 C11 4.01 11 3.02 11 2 C14.82097239 2.53069061 17.06171403 3.49701566 20 6 C18.74464015 9.76607955 17.47116415 10.26441793 14 12 C13.01 12 12.02 12 11 12 C11 11.01 11 10.02 11 9 C10.28972656 9.01160156 9.57945313 9.02320313 8.84765625 9.03515625 C7.92855469 9.04417969 7.00945313 9.05320312 6.0625 9.0625 C5.14597656 9.07410156 4.22945313 9.08570313 3.28515625 9.09765625 C1 9 1 9 0 8 C-0.14115161 5.32941149 -0.04247107 2.67567762 0 0 Z " fill="#7F8484" transform="translate(2,12)"/>
<path d="M0 0 C0 0.99 0 1.98 0 3 C0.71027344 2.98839844 1.42054687 2.97679687 2.15234375 2.96484375 C3.07144531 2.95582031 3.99054687 2.94679687 4.9375 2.9375 C5.85402344 2.92589844 6.77054688 2.91429687 7.71484375 2.90234375 C10 3 10 3 11 4 C11.14115161 6.67058851 11.04247107 9.32432238 11 12 C9.35 12 7.7 12 6 12 C6 10.35 6 8.7 6 7 C4.02 7 2.04 7 0 7 C0 7.99 0 8.98 0 10 C-3.48539917 9.35455571 -6.02819057 7.89865603 -9 6 C-8 3 -8 3 -5.625 1.3125 C-3 0 -3 0 0 0 Z " fill="#808383" transform="translate(11,0)"/>
</svg>
