<svg xmlns="http://www.w3.org/2000/svg" fill-rule="evenodd" stroke-linejoin="round" stroke-miterlimit="2" clip-rule="evenodd" viewBox="0 0 32 32" id="medal"><g transform="translate(0 .003)"><rect width="32" height="32" fill="none"></rect><path d="M61.937,277.539L64.705,280.294C64.967,280.554 65.064,280.938 64.957,281.291C64.851,281.645 64.558,281.911 64.196,281.983C64.196,281.983 61.985,282.425 60.504,282.722C60.108,282.801 59.798,283.11 59.719,283.506C59.423,284.988 58.981,287.199 58.981,287.199C58.908,287.56 58.643,287.853 58.29,287.96C57.937,288.067 57.554,287.971 57.293,287.71L52.938,283.355L54.014,282.752L55.787,282.73C56.832,282.717 57.795,282.161 58.329,281.262L59.235,279.738L60.759,278.832C61.28,278.523 61.686,278.069 61.937,277.539ZM40.058,277.53C40.31,278.064 40.717,278.521 41.241,278.832L42.765,279.738L43.671,281.262C44.205,282.161 45.168,282.717 46.213,282.73L47.986,282.752L49.062,283.355L44.707,287.71C44.446,287.971 44.063,288.067 43.71,287.96C43.357,287.853 43.092,287.56 43.019,287.199C43.019,287.199 42.577,284.988 42.281,283.506C42.202,283.11 41.892,282.801 41.496,282.722C40.015,282.425 37.804,281.983 37.804,281.983C37.442,281.911 37.15,281.645 37.043,281.292C36.936,280.939 37.032,280.556 37.293,280.296L40.058,277.53ZM48.52,262.247L50.511,261.131C50.815,260.96 51.185,260.96 51.489,261.131L53.48,262.247L55.762,262.276C56.111,262.28 56.432,262.465 56.61,262.765L57.775,264.727L59.738,265.893C60.037,266.071 60.223,266.392 60.227,266.74L60.255,269.023L61.372,271.013C61.543,271.317 61.543,271.688 61.372,271.992L60.255,273.983L60.227,276.265C60.223,276.613 60.037,276.935 59.738,277.112L57.775,278.278L56.61,280.241C56.432,280.54 56.111,280.726 55.762,280.73L53.48,280.758L51.489,281.875C51.185,282.045 50.815,282.045 50.511,281.875L48.52,280.758L46.238,280.73C45.889,280.726 45.568,280.54 45.39,280.241L44.225,278.278L42.262,277.112C41.963,276.935 41.777,276.613 41.773,276.265L41.745,273.983L40.628,271.992C40.457,271.688 40.457,271.317 40.628,271.013L41.745,269.023L41.773,266.74C41.777,266.392 41.963,266.071 42.262,265.893L44.225,264.727L45.39,262.765C45.568,262.465 45.889,262.28 46.238,262.276L48.52,262.247ZM48.86,268.521L50.116,266.141C50.289,265.813 50.629,265.607 51,265.607C51.371,265.607 51.711,265.813 51.884,266.141L53.14,268.521L55.792,268.98C56.158,269.043 56.458,269.303 56.573,269.656C56.687,270.009 56.597,270.396 56.339,270.662L54.463,272.592L54.846,275.256C54.899,275.623 54.744,275.989 54.444,276.207C54.144,276.425 53.748,276.459 53.415,276.295L51,275.108L48.585,276.295C48.252,276.459 47.856,276.425 47.556,276.207C47.256,275.989 47.101,275.623 47.154,275.256L47.537,272.592L45.661,270.662C45.403,270.396 45.313,270.009 45.427,269.656C45.542,269.303 45.842,269.043 46.208,268.98L48.86,268.521Z" transform="translate(-35 -258.003)"></path></g></svg>